<mxfile host="app.diagrams.net" modified="2021-05-21T08:09:57.813Z" agent="5.0 (Windows NT 10.0; Win64; x64) AppleWebKit/537.36 (KHTML, like Gecko) Chrome/90.0.4430.212 Safari/537.36" etag="-ls1FXY-FX-QjgtxRXpU" version="14.6.13" type="github">
  <diagram id="g--lDrGysbMDffY8_HrF" name="第 1 页">
    <mxGraphModel dx="782" dy="443" grid="1" gridSize="10" guides="1" tooltips="1" connect="1" arrows="1" fold="1" page="1" pageScale="1" pageWidth="850" pageHeight="1100" math="0" shadow="0">
      <root>
        <mxCell id="0" />
        <mxCell id="1" parent="0" />
        <mxCell id="Pnulj-aScT7eN9dSgkUD-7" style="edgeStyle=orthogonalEdgeStyle;rounded=0;orthogonalLoop=1;jettySize=auto;html=1;exitX=0.5;exitY=0;exitDx=0;exitDy=0;entryX=0.5;entryY=1;entryDx=0;entryDy=0;strokeWidth=2;" edge="1" parent="1" source="Pnulj-aScT7eN9dSgkUD-2" target="Pnulj-aScT7eN9dSgkUD-3">
          <mxGeometry relative="1" as="geometry" />
        </mxCell>
        <mxCell id="Pnulj-aScT7eN9dSgkUD-12" style="edgeStyle=orthogonalEdgeStyle;rounded=0;orthogonalLoop=1;jettySize=auto;html=1;entryX=0.5;entryY=1;entryDx=0;entryDy=0;strokeWidth=2;" edge="1" parent="1" target="Pnulj-aScT7eN9dSgkUD-11">
          <mxGeometry relative="1" as="geometry">
            <mxPoint x="255" y="540" as="sourcePoint" />
            <Array as="points">
              <mxPoint x="255" y="550" />
              <mxPoint x="395" y="550" />
            </Array>
          </mxGeometry>
        </mxCell>
        <mxCell id="Pnulj-aScT7eN9dSgkUD-15" style="edgeStyle=orthogonalEdgeStyle;rounded=0;orthogonalLoop=1;jettySize=auto;html=1;entryX=0.5;entryY=1;entryDx=0;entryDy=0;strokeWidth=2;" edge="1" parent="1" target="Pnulj-aScT7eN9dSgkUD-14">
          <mxGeometry relative="1" as="geometry">
            <mxPoint x="255" y="550" as="sourcePoint" />
          </mxGeometry>
        </mxCell>
        <mxCell id="Pnulj-aScT7eN9dSgkUD-2" value="解析列表页URL" style="rounded=1;whiteSpace=wrap;html=1;absoluteArcSize=1;arcSize=14;strokeWidth=2;" vertex="1" parent="1">
          <mxGeometry x="200" y="560" width="110" height="40" as="geometry" />
        </mxCell>
        <mxCell id="Pnulj-aScT7eN9dSgkUD-8" style="edgeStyle=orthogonalEdgeStyle;rounded=0;orthogonalLoop=1;jettySize=auto;html=1;exitX=0.5;exitY=0;exitDx=0;exitDy=0;entryX=0.5;entryY=1;entryDx=0;entryDy=0;strokeWidth=2;" edge="1" parent="1" source="Pnulj-aScT7eN9dSgkUD-3" target="Pnulj-aScT7eN9dSgkUD-4">
          <mxGeometry relative="1" as="geometry" />
        </mxCell>
        <mxCell id="Pnulj-aScT7eN9dSgkUD-3" value="获取详情页URL&lt;span style=&quot;color: rgba(0 , 0 , 0 , 0) ; font-family: monospace ; font-size: 0px&quot;&gt;%3CmxGraphModel%3E%3Croot%3E%3CmxCell%20id%3D%220%22%2F%3E%3CmxCell%20id%3D%221%22%20parent%3D%220%22%2F%3E%3CmxCell%20id%3D%222%22%20value%3D%22%E9%A2%84%E5%A4%84%E7%90%86%22%20style%3D%22rounded%3D1%3BwhiteSpace%3Dwrap%3Bhtml%3D1%3BabsoluteArcSize%3D1%3BarcSize%3D14%3BstrokeWidth%3D2%3B%22%20vertex%3D%221%22%20parent%3D%221%22%3E%3CmxGeometry%20x%3D%22220%22%20y%3D%22240%22%20width%3D%22110%22%20height%3D%2240%22%20as%3D%22geometry%22%2F%3E%3C%2FmxCell%3E%3C%2Froot%3E%3C%2FmxGraphModel%3E&lt;/span&gt;" style="rounded=1;whiteSpace=wrap;html=1;absoluteArcSize=1;arcSize=14;strokeWidth=2;" vertex="1" parent="1">
          <mxGeometry x="200" y="480" width="110" height="40" as="geometry" />
        </mxCell>
        <mxCell id="Pnulj-aScT7eN9dSgkUD-9" style="edgeStyle=orthogonalEdgeStyle;rounded=0;orthogonalLoop=1;jettySize=auto;html=1;exitX=0.5;exitY=0;exitDx=0;exitDy=0;entryX=0.5;entryY=1;entryDx=0;entryDy=0;strokeWidth=2;" edge="1" parent="1" source="Pnulj-aScT7eN9dSgkUD-4" target="Pnulj-aScT7eN9dSgkUD-5">
          <mxGeometry relative="1" as="geometry" />
        </mxCell>
        <mxCell id="Pnulj-aScT7eN9dSgkUD-4" value="页面特定内容获取" style="rounded=1;whiteSpace=wrap;html=1;absoluteArcSize=1;arcSize=14;strokeWidth=2;" vertex="1" parent="1">
          <mxGeometry x="200" y="400" width="110" height="40" as="geometry" />
        </mxCell>
        <mxCell id="Pnulj-aScT7eN9dSgkUD-10" style="edgeStyle=orthogonalEdgeStyle;rounded=0;orthogonalLoop=1;jettySize=auto;html=1;exitX=0.5;exitY=0;exitDx=0;exitDy=0;entryX=0.5;entryY=1;entryDx=0;entryDy=0;strokeWidth=2;" edge="1" parent="1" source="Pnulj-aScT7eN9dSgkUD-5" target="Pnulj-aScT7eN9dSgkUD-6">
          <mxGeometry relative="1" as="geometry" />
        </mxCell>
        <mxCell id="Pnulj-aScT7eN9dSgkUD-5" value="标签集设计" style="rounded=1;whiteSpace=wrap;html=1;absoluteArcSize=1;arcSize=14;strokeWidth=2;" vertex="1" parent="1">
          <mxGeometry x="200" y="320" width="110" height="40" as="geometry" />
        </mxCell>
        <mxCell id="Pnulj-aScT7eN9dSgkUD-6" value="数据存储" style="rounded=1;whiteSpace=wrap;html=1;absoluteArcSize=1;arcSize=14;strokeWidth=2;" vertex="1" parent="1">
          <mxGeometry x="200" y="240" width="110" height="40" as="geometry" />
        </mxCell>
        <mxCell id="Pnulj-aScT7eN9dSgkUD-13" style="edgeStyle=orthogonalEdgeStyle;rounded=0;orthogonalLoop=1;jettySize=auto;html=1;exitX=0.5;exitY=0;exitDx=0;exitDy=0;entryX=1;entryY=0.5;entryDx=0;entryDy=0;strokeWidth=2;" edge="1" parent="1" source="Pnulj-aScT7eN9dSgkUD-11" target="Pnulj-aScT7eN9dSgkUD-4">
          <mxGeometry relative="1" as="geometry" />
        </mxCell>
        <mxCell id="Pnulj-aScT7eN9dSgkUD-11" value="IP代理池" style="rounded=1;whiteSpace=wrap;html=1;absoluteArcSize=1;arcSize=14;strokeWidth=2;" vertex="1" parent="1">
          <mxGeometry x="340" y="480" width="110" height="40" as="geometry" />
        </mxCell>
        <mxCell id="Pnulj-aScT7eN9dSgkUD-16" style="edgeStyle=orthogonalEdgeStyle;rounded=0;orthogonalLoop=1;jettySize=auto;html=1;exitX=0.5;exitY=0;exitDx=0;exitDy=0;entryX=0;entryY=0.5;entryDx=0;entryDy=0;strokeWidth=2;" edge="1" parent="1" source="Pnulj-aScT7eN9dSgkUD-14" target="Pnulj-aScT7eN9dSgkUD-4">
          <mxGeometry relative="1" as="geometry" />
        </mxCell>
        <mxCell id="Pnulj-aScT7eN9dSgkUD-14" value="URL去重模块" style="rounded=1;whiteSpace=wrap;html=1;absoluteArcSize=1;arcSize=14;strokeWidth=2;" vertex="1" parent="1">
          <mxGeometry x="60" y="480" width="110" height="40" as="geometry" />
        </mxCell>
      </root>
    </mxGraphModel>
  </diagram>
</mxfile>
